<?xml version="1.0" encoding="UTF-8"?>
<svg id="Layer_1" data-name="Layer 1" xmlns="http://www.w3.org/2000/svg" viewBox="0 0 716.7 242.1">
  <defs>
    <style>
      .cls-1 {
        fill: #26b25c;
      }

      .cls-2 {
        fill: #025043;
      }
    </style>
  </defs>
  <path class="cls-2" d="M234.34,83.22l-.02-17.02c0-3.67.37-7.32,1.08-10.89h-21.8c-10.1,0-19.25,1.35-27.52,4.04-8.25,2.69-15.36,6.75-21.25,12.13-5.92,5.38-10.49,12.1-13.69,20.08-3.22,8.01-4.82,17.23-4.82,27.67v63.39h28.69v-63.92c0-12.01,3.56-20.92,10.68-26.75,7.14-5.83,16.44-8.73,27.91-8.73h20.74Z"/>
  <path class="cls-2" d="M347.82,115.83c0,5.56-.6,10.73-1.82,15.52-1.22,4.78-3.17,8.91-5.86,12.4-2.69,3.47-6.16,6.22-10.45,8.22-4.25,2-9.42,2.99-15.5,2.99s-11.26-.99-15.53-2.99c-4.27-2-7.7-4.78-10.31-8.36-2.6-3.56-4.52-7.72-5.74-12.5-1.2-4.78-1.82-9.87-1.82-15.27v-16.17c-3.83.83-7.76,1.26-11.73,1.26h-16.97v18.31c0,11.99-3.56,20.9-10.68,26.73-7.14,5.83-16.44,8.73-27.93,8.73h-8.34v27.93h8.34c10.1,0,19.27-1.36,27.52-4.06,8.25-2.71,15.36-6.75,21.25-12.13l3.5-3.19s.09-.03.12,0c2.86,3.24,6.05,6.1,9.55,8.53,5.14,3.56,10.79,6.31,16.97,8.22,6.16,1.91,12.47,2.87,18.9,2.87,13.74,0,25.91-4.25,36.52-12.79,0,3.65-.04,7.44-.12,11.37-.09,3.9-.81,7.6-2.21,11.09-2.78,7.3-7.39,12.72-13.82,16.28-6.45,3.56-13.41,5.35-20.88,5.35-8.34,0-15.48-1.29-21.38-3.9-5.92-2.62-11.94-6.71-18.01-12.26l-19.04,21.13c7.65,7.65,16.61,13.39,26.87,17.2,10.26,3.84,20.78,5.76,31.56,5.76,6.61,0,13-.83,19.18-2.48,6.16-1.67,11.94-4.13,17.34-7.44,5.4-3.29,10.18-7.3,14.35-11.99,4.18-4.69,7.56-10.18,10.17-16.44,1.91-4.69,3.19-9.58,3.79-14.61.62-5.05.9-10.08.9-15.14V55.57h-28.69v60.26Z"/>
  <path class="cls-2" d="M483.79,119.89c0,5.39-.61,10.48-1.83,15.26-1.22,4.79-3.13,8.92-5.74,12.39-2.61,3.48-6.04,6.22-10.3,8.22-4.26,2-9.44,3-15.52,3s-11.26-1-15.52-3c-4.26-2-7.7-4.74-10.3-8.22-2.61-3.48-4.53-7.61-5.74-12.39-1.22-4.78-1.83-9.87-1.83-15.26V55.71h-28.7v69.13c0,8.52,1.47,16.52,4.43,24,2.96,7.48,7.18,14.05,12.65,19.7,5.48,5.65,12,10.09,19.57,13.3,7.57,3.22,16.04,4.83,25.44,4.83s17.87-1.61,25.43-4.83c7.57-3.22,14.09-7.65,19.57-13.3,5.48-5.65,9.69-12.22,12.65-19.7,2.96-7.47,4.43-15.48,4.43-24V55.71h-28.7v64.18Z"/>
  <path class="cls-2" d="M712.14,85.7c-3.05-7.21-7.09-13.34-12.13-18.39-5.05-5.04-10.83-8.96-17.35-11.74-6.52-2.78-13.17-4.17-19.96-4.17-8.7,0-16.61,1.52-23.74,4.57-7.13,3.04-13.31,8.13-18.52,15.26-5.22-7.13-11.39-12.22-18.52-15.26-7.13-3.04-15.04-4.57-23.74-4.57-6.78,0-13.43,1.39-19.96,4.17-6.52,2.78-12.31,6.7-17.35,11.74-5.05,5.05-9.09,11.18-12.13,18.39-3.05,7.22-4.57,15.26-4.57,24.13v72.78h28.96v-73.04c0-10.44,2.43-18.09,7.31-22.96,4.87-4.87,11.22-7.3,19.04-7.3,9.22,0,15.95,2.91,20.22,8.74,4.26,5.83,6.39,13,6.39,21.52v73.04h28.7v-73.04c0-8.52,2.13-15.69,6.39-21.52,4.26-5.83,11-8.74,20.22-8.74,7.83,0,14.17,2.44,19.04,7.3,4.87,4.87,7.31,12.52,7.31,22.96v73.04h28.96v-72.78c0-8.87-1.53-16.91-4.56-24.13Z"/>
  <path class="cls-1" d="M267.41,83.2c3.7,0,7.26-.59,10.59-1.7,13.55-4.46,23.35-17.23,23.35-32.26l-.02-15.38h-15.36c-15.3,0-28.26,10.18-32.49,24.12-.94,3.12-1.45,6.42-1.45,9.83l.02,15.38h15.36Z"/>
  <path class="cls-2" d="M103.83,55.3h-33.39c-11.65,0-21.87,1.7-30.65,5.09-8.78,3.39-16.13,8.05-22.04,13.96-5.91,5.91-10.35,12.87-13.3,20.87-2.96,8-4.43,16.52-4.43,25.57,0,9.57,1.7,18.35,5.09,26.35,3.39,8,8.04,14.91,13.96,20.74,5.91,5.83,12.91,10.39,21,13.7,8.09,3.3,16.83,4.96,26.22,4.96s18.13-1.66,26.22-4.96c8.09-3.3,15.08-7.87,21-13.7,5.91-5.83,10.57-12.74,13.96-20.74,3.39-8,5.09-16.78,5.09-26.35V0h-28.7v55.3ZM103.83,118.44c0,5.39-.87,10.52-2.61,15.39-1.74,4.87-4.22,9.13-7.43,12.78-3.22,3.65-7.13,6.57-11.74,8.74-4.61,2.18-9.78,3.26-15.52,3.26-2.65,0-5.21-.24-7.69-.7-.85-3.02-5.68-25.72,29-61.08h0s-42.71,12.01-47.51,51.92c-.3-.28-.63-.54-.93-.83-3.31-3.3-5.91-7.31-7.83-12-1.92-4.69-2.87-9.74-2.87-15.13s.91-10.13,2.74-14.74c1.83-4.61,4.48-8.61,7.96-12,3.48-3.39,7.83-6.04,13.04-7.96,5.22-1.91,11.3-2.87,18.26-2.87h33.13v35.22Z"/>
</svg>